<svg width="30" height="29" viewBox="0 0 30 29" fill="none" xmlns="http://www.w3.org/2000/svg">
<path d="M22.982 27.0059C21.838 27.3439 20.486 27.4999 18.9 27.4999H11.1C9.51397 27.4999 8.16197 27.3439 7.01797 27.0059C7.30397 23.6259 10.775 20.9609 15 20.9609C19.225 20.9609 22.696 23.6259 22.982 27.0059Z" stroke="#80C4FF" stroke-width="2.5" stroke-linecap="round" stroke-linejoin="round"/>
<path d="M18.9 1.5H11.1C4.6 1.5 2 4.1 2 10.6V18.4C2 23.314 3.482 26.005 7.018 27.006C7.304 23.626 10.775 20.961 15 20.961C19.225 20.961 22.696 23.626 22.982 27.006C26.518 26.005 28 23.314 28 18.4V10.6C28 4.1 25.4 1.5 18.9 1.5ZM15 17.321C12.426 17.321 10.346 15.228 10.346 12.654C10.346 10.08 12.426 8 15 8C17.574 8 19.654 10.08 19.654 12.654C19.654 15.228 17.574 17.321 15 17.321Z" stroke="#80C4FF" stroke-width="2.5" stroke-linecap="round" stroke-linejoin="round"/>
<path d="M19.654 12.654C19.654 15.228 17.574 17.321 15 17.321C12.426 17.321 10.346 15.228 10.346 12.654C10.346 10.08 12.426 8 15 8C17.574 8 19.654 10.08 19.654 12.654Z" stroke="#80C4FF" stroke-width="2.5" stroke-linecap="round" stroke-linejoin="round"/>
</svg>
