<svg width="30" height="29" viewBox="0 0 30 29" fill="none" xmlns="http://www.w3.org/2000/svg">
<path d="M8.11 22.3H4.795C2.936 22.3 2 21.364 2 19.505V4.295C2 2.436 2.936 1.5 4.795 1.5H10.385C12.244 1.5 13.18 2.436 13.18 4.295V6.7" stroke="#80C4FF" stroke-width="2.5" stroke-miterlimit="10" stroke-linecap="round" stroke-linejoin="round"/>
<path d="M21.981 9.8462V24.3542C21.981 26.4472 20.941 27.5002 18.848 27.5002H11.256C9.16302 27.5002 8.11002 26.4472 8.11002 24.3542V9.8462C8.11002 7.7532 9.16302 6.7002 11.256 6.7002H18.848C20.941 6.7002 21.981 7.7532 21.981 9.8462Z" stroke="#80C4FF" stroke-width="2.5" stroke-miterlimit="10" stroke-linecap="round" stroke-linejoin="round"/>
<path d="M16.82 6.7V4.295C16.82 2.436 17.756 1.5 19.615 1.5H25.205C27.064 1.5 28 2.436 28 4.295V19.505C28 21.364 27.064 22.3 25.205 22.3H21.981M12.4 13.2H17.6M12.4 17.1H17.6M15 27.5V23.6" stroke="#80C4FF" stroke-width="2.5" stroke-miterlimit="10" stroke-linecap="round" stroke-linejoin="round"/>
</svg>
