<svg width="30" height="29" viewBox="0 0 30 29" fill="none" xmlns="http://www.w3.org/2000/svg">
<path d="M11.1 27.5H18.9C25.4 27.5 28 24.9 28 18.4V10.6C28 4.1 25.4 1.5 18.9 1.5H11.1C4.6 1.5 2 4.1 2 10.6V18.4C2 24.9 4.6 27.5 11.1 27.5Z" stroke="#3EA2F7" stroke-width="2.5" stroke-linecap="round" stroke-linejoin="round"/>
<path d="M28 13.066H18.056M11.944 13.066H2M18.0547 13.066C17.9247 13.9983 17.3788 14.7861 16.6248 15.2588V17.8587C16.6248 18.294 16.4537 18.7115 16.1489 19.0193C15.8442 19.3271 15.4309 19.5 15 19.5C14.5691 19.5 14.1558 19.3271 13.8511 19.0193C13.5464 18.7115 13.3752 18.294 13.3752 17.8587V15.2588C12.6212 14.7861 12.0753 13.9983 11.9453 13.066C11.9193 12.9216 11.9063 12.764 11.9063 12.6064C11.9063 10.6106 13.7781 9.06115 15.8319 9.61264C16.8718 9.88838 17.7167 10.7419 17.9897 11.7923C18.1067 12.2256 18.1197 12.6589 18.0547 13.066Z" stroke="#3EA2F7" stroke-width="2.5" stroke-miterlimit="10"/>
</svg>
