<svg width="30" height="29" viewBox="0 0 30 29" fill="none" xmlns="http://www.w3.org/2000/svg">
<path d="M21.121 4.12579C23.7584 4.12579 25.8792 6.18629 25.8792 8.71926C25.8792 11.1997 23.84 13.2209 21.2978 13.3127C21.1804 13.2996 21.0617 13.2996 20.9443 13.3127M23.7448 25.1245C24.7237 24.9277 25.6481 24.5471 26.4094 23.9827C28.5302 22.4472 28.5302 19.9142 26.4094 18.3787C25.6617 17.8275 24.7509 17.46 23.7856 17.25M11.2648 13.1421C11.1289 13.129 10.9658 13.129 10.8162 13.1421C9.25581 13.091 7.77729 12.4555 6.69377 11.3703C5.61025 10.2851 5.00681 8.83535 5.01124 7.3281C5.01124 4.11267 7.70301 1.50095 11.0473 1.50095C12.6464 1.4731 14.1914 2.05963 15.3425 3.13152C16.4936 4.2034 17.1565 5.67282 17.1854 7.21654C17.2142 8.76026 16.6066 10.2518 15.4963 11.3631C14.386 12.4743 12.8639 13.1143 11.2648 13.1421ZM4.46745 17.985C1.17752 20.1111 1.17752 23.5759 4.46745 25.6889C8.20601 28.1037 14.3373 28.1037 18.0758 25.6889C21.3658 23.5627 21.3658 20.0979 18.0758 17.985C14.3509 15.5832 8.21961 15.5832 4.46745 17.985Z" stroke="#80C4FF" stroke-width="2.5" stroke-linecap="round" stroke-linejoin="round"/>
</svg>
