<svg width="30" height="25" viewBox="0 0 30 25" fill="none" xmlns="http://www.w3.org/2000/svg">
<path d="M23.6667 8.16699V14.3575M15.6191 14.3575C16.44 14.3575 17.2273 14.0314 17.8077 13.4509C18.3882 12.8704 18.7143 12.0831 18.7143 11.2622C18.7143 10.4413 18.3882 9.65404 17.8077 9.07357C17.2273 8.4931 16.44 8.16699 15.6191 8.16699C14.7981 8.16699 14.0109 8.4931 13.4304 9.07357C12.8499 9.65404 12.5238 10.4413 12.5238 11.2622C12.5238 12.0831 12.8499 12.8704 13.4304 13.4509C14.0109 14.0314 14.7981 14.3575 15.6191 14.3575ZM11.9048 18.6908C11.9048 19.6194 11.6448 20.4984 11.1867 21.2413C10.7502 21.9748 10.1302 22.5821 9.38777 23.0032C8.64532 23.4244 7.80598 23.645 6.95239 23.6432C6.0988 23.645 5.25947 23.4244 4.51701 23.0032C3.77455 22.5821 3.15457 21.9748 2.71811 21.2413C2.24681 20.4742 1.99818 19.5911 2.00001 18.6908C2.00001 15.9546 4.2162 13.7384 6.95239 13.7384C9.68858 13.7384 11.9048 15.9546 11.9048 18.6908Z" stroke="#80C4FF" stroke-width="2.5" stroke-miterlimit="10" stroke-linecap="round" stroke-linejoin="round"/>
<path d="M5.02216 18.6909L6.24787 19.9166L8.88501 17.4775" stroke="#80C4FF" stroke-width="2.5" stroke-linecap="round" stroke-linejoin="round"/>
<path d="M3.2381 15.3479V7.5479C3.2381 3.21456 5.71429 1.35742 9.42857 1.35742H21.8095C25.5238 1.35742 28 3.21456 28 7.5479V14.9765C28 19.3098 25.5238 21.1669 21.8095 21.1669H11.2857" stroke="#80C4FF" stroke-width="2.5" stroke-miterlimit="10" stroke-linecap="round" stroke-linejoin="round"/>
</svg>
