<svg width="15" height="13" viewBox="0 0 15 13" fill="none" xmlns="http://www.w3.org/2000/svg">
<path fill-rule="evenodd" clip-rule="evenodd" d="M0 1.5C0 0.671573 0.530189 0 1.18421 0H13.8158C14.4698 0 15 0.671573 15 1.5C15 2.32843 14.4698 3 13.8158 3H1.18421C0.530189 3 0 2.32843 0 1.5Z" fill="#3EA2F7"/>
<path fill-rule="evenodd" clip-rule="evenodd" d="M2 6.5C2 5.67157 2.43455 5 2.97059 5H12.0294C12.5655 5 13 5.67157 13 6.5C13 7.32843 12.5655 8 12.0294 8H2.97059C2.43455 8 2 7.32843 2 6.5Z" fill="#3EA2F7"/>
<path fill-rule="evenodd" clip-rule="evenodd" d="M4 11.5C4 10.6716 4.42736 10 4.95455 10H10.0455C10.5726 10 11 10.6716 11 11.5C11 12.3284 10.5726 13 10.0455 13H4.95455C4.42736 13 4 12.3284 4 11.5Z" fill="#3EA2F7"/>
</svg>
