<svg width="29" height="29" viewBox="0 0 29 29" fill="none" xmlns="http://www.w3.org/2000/svg">
<path d="M3.01401 8.57031L14.4935 15.2136L25.8949 8.60931M14.4935 26.992V15.2006" stroke="#80C4FF" stroke-width="2.5" stroke-linecap="round" stroke-linejoin="round"/>
<path d="M11.8024 2.12207L4.86011 5.98323C3.28705 6.85426 2 9.03835 2 10.8324V18.1777C2 19.9718 3.28705 22.1559 4.86011 23.0269L11.8024 26.8881C13.2845 27.7071 15.7155 27.7071 17.1976 26.8881L24.1399 23.0269C25.7129 22.1559 27 19.9718 27 18.1777V10.8324C27 9.03835 25.7129 6.85426 24.1399 5.98323L17.1976 2.12207C15.7025 1.29004 13.2845 1.29004 11.8024 2.12207Z" stroke="#80C4FF" stroke-width="2.5" stroke-linecap="round" stroke-linejoin="round"/>
<path d="M20.9937 16.111V11.3528L8.65625 4.22852" stroke="#80C4FF" stroke-width="2.5" stroke-linecap="round" stroke-linejoin="round"/>
</svg>
