<svg width="26" height="29" viewBox="0 0 26 29" fill="none" xmlns="http://www.w3.org/2000/svg">
<path d="M20.5024 23.4207H19.5143C18.4742 23.4207 17.4861 23.8238 16.758 24.5519L14.5347 26.7492C13.5206 27.7503 11.8694 27.7503 10.8552 26.7492L8.63195 24.5519C7.90386 23.8238 6.90274 23.4207 5.87561 23.4207H4.90049C2.74222 23.4207 1 21.6915 1 19.5593V5.36148C1 3.22922 2.74222 1.5 4.90049 1.5H20.5024C22.6607 1.5 24.4029 3.22922 24.4029 5.36148V19.5463C24.4029 21.6785 22.6607 23.4207 20.5024 23.4207Z" stroke="#3EA2F7" stroke-width="2" stroke-miterlimit="10" stroke-linecap="round" stroke-linejoin="round"/>
<path d="M12.792 10.5374H12.597C11.9399 10.5155 11.3172 10.2385 10.8609 9.7652C10.4046 9.29191 10.1506 8.65953 10.1527 8.00211C10.1527 6.59794 11.2838 5.4668 12.688 5.4668C14.0921 5.4668 15.2233 6.61094 15.2233 8.00211C15.2363 9.38029 14.1572 10.4984 12.792 10.5374ZM9.12553 14.4509C7.39631 15.6081 7.39631 17.4933 9.12553 18.6504C11.0888 19.9636 14.3132 19.9636 16.2764 18.6504C18.0056 17.4933 18.0056 15.6081 16.2764 14.4509C14.3132 13.1508 11.1018 13.1508 9.12553 14.4509Z" stroke="#3EA2F7" stroke-width="2" stroke-linecap="round" stroke-linejoin="round"/>
</svg>
