<svg width="28" height="29" viewBox="0 0 28 29" fill="none" xmlns="http://www.w3.org/2000/svg">
<path d="M10.1 27.5H17.9C24.4 27.5 27 24.9 27 18.4V10.6C27 4.1 24.4 1.5 17.9 1.5H10.1C3.6 1.5 1 4.1 1 10.6V18.4C1 24.9 3.6 27.5 10.1 27.5Z" stroke="#3EA2F7" stroke-width="2" stroke-linecap="round" stroke-linejoin="round"/>
<path d="M18.6406 22.9498V17.8798M18.6406 8.5848V6.0498M18.6406 8.5848C19.0845 8.5848 19.524 8.67223 19.9341 8.84209C20.3442 9.01195 20.7168 9.26092 21.0307 9.57478C21.3445 9.88865 21.5935 10.2613 21.7633 10.6713C21.9332 11.0814 22.0206 11.5209 22.0206 11.9648C22.0206 12.4087 21.9332 12.8482 21.7633 13.2583C21.5935 13.6684 21.3445 14.041 21.0307 14.3548C20.7168 14.6687 20.3442 14.9177 19.9341 15.0875C19.524 15.2574 19.0845 15.3448 18.6406 15.3448C17.7442 15.3448 16.8845 14.9887 16.2506 14.3548C15.6167 13.721 15.2606 12.8612 15.2606 11.9648C15.2606 11.0684 15.6167 10.2087 16.2506 9.57478C16.8845 8.94091 17.7442 8.5848 18.6406 8.5848ZM9.35864 22.9498V20.4148M9.35864 20.4148C9.80251 20.4148 10.242 20.3274 10.6521 20.1575C11.0622 19.9877 11.4348 19.7387 11.7487 19.4248C12.0625 19.111 12.3115 18.7384 12.4814 18.3283C12.6512 17.9182 12.7386 17.4787 12.7386 17.0348C12.7386 16.5909 12.6512 16.1514 12.4814 15.7413C12.3115 15.3313 12.0625 14.9586 11.7487 14.6448C11.4348 14.3309 11.0622 14.082 10.6521 13.9121C10.242 13.7422 9.80251 13.6548 9.35864 13.6548C8.46221 13.6548 7.60249 14.0109 6.96862 14.6448C6.33474 15.2787 5.97864 16.1384 5.97864 17.0348C5.97864 17.9312 6.33474 18.791 6.96862 19.4248C7.60249 20.0587 8.46221 20.4148 9.35864 20.4148ZM9.35864 11.1198V6.0498" stroke="#3EA2F7" stroke-width="2" stroke-miterlimit="10" stroke-linecap="round" stroke-linejoin="round"/>
</svg>
